<svg width="17" height="18" viewBox="0 0 17 18" fill="none" xmlns="http://www.w3.org/2000/svg">
<g clip-path="url(#clip0_3_1073)">
<path d="M0.900654 17.1279L0.90052 17.128C0.800048 17.1542 0.697362 17.0939 0.671192 16.9934L0.671171 16.9934C0.66311 16.9624 0.663084 16.9298 0.671182 16.8987C0.671184 16.8987 0.671185 16.8987 0.671186 16.8987L1.13806 15.1055C1.47338 13.8176 1.24374 12.4999 0.930198 11.3288C0.754857 10.674 0.664173 9.99232 0.664173 9.29715C0.664173 4.9703 4.17231 1.46257 8.49999 1.46257C12.8276 1.46257 16.3358 4.97031 16.3358 9.29715C16.3358 13.624 12.8276 17.1317 8.49999 17.1317C7.80567 17.1317 7.12483 17.0413 6.47064 16.8664C5.30086 16.5538 3.98479 16.3251 2.6985 16.6599L0.900654 17.1279Z" stroke="white" stroke-opacity="0.786" stroke-width="1.04478"/>
</g>
<defs>
<clipPath id="clip0_3_1073">
<rect width="16.7164" height="16.7164" fill="white" transform="translate(0.141785 0.940186)"/>
</clipPath>
</defs>
</svg>
