<svg width="24" height="24" viewBox="0 0 24 24" fill="none" xmlns="http://www.w3.org/2000/svg">
<path d="M4.19844 2.3999C3.20244 2.3999 2.39844 3.2039 2.39844 4.1975V19.7747C2.39844 20.7683 3.20364 21.5723 4.19844 21.5723H5.39844C6.39084 21.5723 7.19724 20.7683 7.19724 19.7747V4.1975C7.19724 3.2039 6.39084 2.3999 5.39724 2.3999H4.19844ZM10.196 2.3999C9.20244 2.3999 8.39604 3.2039 8.39604 4.1975V19.7747C8.39604 20.7683 9.20244 21.5723 10.196 21.5723H11.396C12.3896 21.5723 13.1948 20.7683 13.1948 19.7747V4.1975C13.1948 3.2051 12.3896 2.3999 11.3948 2.3999H10.196ZM18.86 7.3883C18.8052 7.15075 18.7027 6.92682 18.5587 6.73008C18.4148 6.53334 18.2323 6.3679 18.0225 6.24379C17.8126 6.11968 17.5798 6.03949 17.338 6.00809C17.0962 5.97669 16.8506 5.99472 16.616 6.0611L15.722 6.3131C15.2853 6.43659 14.9114 6.72072 14.6755 7.10846C14.4395 7.4962 14.359 7.95885 14.45 8.4035L16.8536 20.1623C16.9027 20.4006 16.9997 20.6265 17.1385 20.8264C17.2774 21.0262 17.4554 21.1958 17.6616 21.3249C17.8679 21.454 18.0982 21.5399 18.3386 21.5775C18.5791 21.6151 18.8246 21.6035 19.0604 21.5435L20.2424 21.2435C21.1904 21.0035 21.7712 20.0507 21.5528 19.0991L18.86 7.3883Z" fill="black"/>
</svg>
