<svg width="32" height="32" viewBox="0 0 32 32" fill="none" xmlns="http://www.w3.org/2000/svg">
<path d="M7.44825 9.85101C6.29737 10.0985 5.35687 10.5811 4.503 11.3608C3.55012 12.227 2.7705 13.6996 2.60962 14.9619L2.5725 15.296L2.04037 15.3208C1.54537 15.3455 1.49587 15.3579 1.37212 15.5064C1.19887 15.7168 1.19887 15.9519 1.37212 16.1623C1.50825 16.3108 1.54537 16.3231 2.04037 16.3479L2.5725 16.3726L2.60962 16.7068C2.73337 17.6596 3.25312 18.8476 3.89662 19.652C4.73812 20.6915 5.82712 21.3969 7.21312 21.7805C7.80712 21.9414 9.37875 21.9661 10.0099 21.8053C11.235 21.5083 12.2002 20.9514 13.0541 20.0604C13.314 19.7881 13.6234 19.4169 13.7471 19.2313C14.2545 18.4764 14.6381 17.4369 14.7371 16.6078C14.7866 16.2118 14.9104 15.989 15.2074 15.791C15.6281 15.5188 16.2221 15.5435 16.5934 15.8653C16.8285 16.0633 16.8656 16.1499 16.9646 16.7191C17.1255 17.6596 17.4472 18.4888 17.9422 19.2313C18.2392 19.7015 19.0436 20.5059 19.5139 20.8276C20.6895 21.632 21.8775 21.9661 23.313 21.9043C24.699 21.8424 25.8994 21.3721 26.976 20.4688C28.065 19.553 28.8941 18.0433 29.0674 16.6944L29.1045 16.3603L29.6366 16.3355C30.1316 16.3108 30.1811 16.2984 30.3049 16.1499C30.4781 15.9395 30.4781 15.7044 30.3049 15.494C30.1687 15.3455 30.1316 15.3331 29.6366 15.3084L29.1045 15.2836L29.0674 14.9495C28.8941 13.6006 28.0526 12.0909 26.976 11.1751C25.8994 10.2718 24.699 9.80151 23.313 9.73964C21.8651 9.67776 20.6895 10.0119 19.5139 10.8163C19.0312 11.1504 18.2516 11.9424 17.9422 12.425C17.5957 12.9448 17.2369 13.7491 17.1007 14.3184C17.0265 14.603 16.9646 14.8381 16.9522 14.8505C16.9522 14.8629 16.8285 14.8134 16.6924 14.7391C16.3087 14.5411 15.591 14.5164 15.096 14.702L14.7247 14.8381L14.601 14.3184C14.4649 13.7615 14.106 12.9448 13.7595 12.4126C13.4501 11.9424 12.6581 11.138 12.1879 10.8039C11.433 10.2841 10.6162 9.93764 9.77475 9.78914C9.08175 9.70251 8.05462 9.71489 7.44825 9.85101ZM10.0346 10.9524C11.7795 11.4598 13.1036 12.821 13.5862 14.5783C13.7347 15.098 13.7347 16.5583 13.5862 17.0904C13.0912 18.8848 11.7052 20.2584 9.92325 20.7534C9.3045 20.9143 8.067 20.9266 7.473 20.7781C5.592 20.2831 4.206 18.8971 3.72337 17.0656C3.5625 16.4221 3.5625 15.2589 3.72337 14.6154C4.206 12.8086 5.62912 11.3855 7.39875 10.94C8.0175 10.7915 8.09175 10.7791 8.859 10.7915C9.37875 10.8039 9.651 10.841 10.0346 10.9524ZM24.2535 10.9276C25.4291 11.2494 26.3944 11.8929 27.0626 12.8086C27.8917 13.9224 28.2135 15.2465 28.0155 16.6201C27.7432 18.464 26.4686 19.9985 24.6742 20.6296C21.927 21.5949 18.9322 20.0356 18.1031 17.1894C17.9917 16.8058 17.967 16.6078 17.967 15.8529C17.967 15.098 17.9794 14.9 18.1031 14.5164C18.66 12.5983 20.2192 11.1875 22.2116 10.8286C22.6571 10.742 23.7956 10.8039 24.2535 10.9276Z" fill="white"/>
<path d="M7.88056 12.1647C6.68018 12.4246 5.61593 13.3403 5.17043 14.4912C4.97243 14.9862 4.86106 15.7782 4.94768 15.9514C5.02193 16.0752 5.23231 16.0999 5.33131 16.0009C5.36843 15.9638 5.40556 15.8153 5.40556 15.6668C5.40556 14.6149 6.22231 13.3898 7.24943 12.8948C7.50931 12.7711 7.84343 12.6721 8.06618 12.6349C8.79631 12.5236 8.85818 12.5112 8.87056 12.3627C8.90768 12.0657 8.63543 12.0038 7.88056 12.1647Z" fill="white"/>
<path d="M22.2617 12.1647C20.9376 12.4617 19.9104 13.3651 19.4526 14.6521C19.2669 15.1842 19.2298 15.9267 19.3907 16.0381C19.5887 16.1618 19.6877 16.0133 19.7619 15.4936C19.8857 14.615 20.2446 13.9343 20.8509 13.3898C21.3831 12.9196 22.1751 12.5855 22.7567 12.5855C23.1651 12.5855 23.4002 12.338 23.2022 12.14C23.1032 12.0533 22.6948 12.0657 22.2617 12.1647Z" fill="white"/>
</svg>
