<svg width="35" height="35" viewBox="0 0 35 35" fill="none" xmlns="http://www.w3.org/2000/svg">
<path d="M23.8557 20.416C23.9724 19.4535 24.0599 18.491 24.0599 17.4993C24.0599 16.5077 23.9724 15.5452 23.8557 14.5827H28.7849C29.0182 15.516 29.1641 16.4931 29.1641 17.4993C29.1641 18.5056 29.0182 19.4827 28.7849 20.416M21.2745 28.5243C22.1495 26.9056 22.8203 25.1556 23.287 23.3327H27.5891C26.1762 25.7656 23.9346 27.6085 21.2745 28.5243ZM20.9099 20.416H14.0849C13.9391 19.4535 13.8516 18.491 13.8516 17.4993C13.8516 16.5077 13.9391 15.5306 14.0849 14.5827H20.9099C21.0411 15.5306 21.1432 16.5077 21.1432 17.4993C21.1432 18.491 21.0411 19.4535 20.9099 20.416ZM17.4974 29.1077C16.287 27.3577 15.3099 25.4181 14.712 23.3327H20.2828C19.6849 25.4181 18.7078 27.3577 17.4974 29.1077ZM11.6641 11.666H7.40573C8.80406 9.22654 11.044 7.38068 13.7057 6.47435C12.8307 8.0931 12.1745 9.8431 11.6641 11.666ZM7.40573 23.3327H11.6641C12.1745 25.1556 12.8307 26.9056 13.7057 28.5243C11.0496 27.608 8.8128 25.7648 7.40573 23.3327ZM6.2099 20.416C5.97656 19.4827 5.83073 18.5056 5.83073 17.4993C5.83073 16.4931 5.97656 15.516 6.2099 14.5827H11.1391C11.0224 15.5452 10.9349 16.5077 10.9349 17.4993C10.9349 18.491 11.0224 19.4535 11.1391 20.416M17.4974 5.87643C18.7078 7.62643 19.6849 9.5806 20.2828 11.666H14.712C15.3099 9.5806 16.287 7.62643 17.4974 5.87643ZM27.5891 11.666H23.287C22.8306 9.85981 22.1547 8.11628 21.2745 6.47435C23.9578 7.3931 26.1891 9.24518 27.5891 11.666ZM17.4974 2.91602C9.43281 2.91602 2.91406 9.47852 2.91406 17.4993C2.91406 21.3671 4.45052 25.0764 7.18542 27.8113C8.53961 29.1655 10.1473 30.2397 11.9166 30.9726C13.6859 31.7055 15.5823 32.0827 17.4974 32.0827C21.3651 32.0827 25.0745 30.5462 27.8094 27.8113C30.5443 25.0764 32.0807 21.3671 32.0807 17.4993C32.0807 15.5842 31.7035 13.6879 30.9706 11.9185C30.2378 10.1492 29.1636 8.54156 27.8094 7.18737C26.4552 5.83319 24.8475 4.75899 23.0782 4.02611C21.3089 3.29322 19.4125 2.91602 17.4974 2.91602Z" fill="#FAF9F6"/>
</svg>
